<svg width="18" height="18" viewBox="0 0 18 18" fill="none" xmlns="http://www.w3.org/2000/svg">
<path fill-rule="evenodd" clip-rule="evenodd" d="M3.46644 4.11396C3.59996 0.752106 6.79774 0.947076 7.01158 1.4283C7.20966 1.95491 8.18427 4.63338 8.18427 4.63338C8.18427 4.63338 8.52678 5.05755 7.65766 5.36613C6.83711 5.69157 6.33949 6.02743 6.33949 6.02743C6.33949 6.02743 6.09792 6.09614 6.26574 6.86659C6.38372 7.46713 8.45019 11.3896 8.88983 11.8475C9.44363 12.4468 9.63663 12.3612 9.63663 12.3612C9.63663 12.3612 10.2484 12.1667 11.0362 11.779C11.8239 11.3913 12.022 11.9179 12.022 11.9179C12.022 11.9179 13.7043 14.2826 13.9824 14.7353C14.325 15.1595 12.5048 17.5795 9.50184 15.57C6.32035 13.4477 3.30265 7.71965 3.46644 4.11396Z" fill="#CDD3D9"/>
</svg>
